<?xml version="1.0" standalone="no"?>
<!DOCTYPE svg PUBLIC "-//W3C//DTD SVG 20010904//EN"
 "http://www.w3.org/TR/2001/REC-SVG-20010904/DTD/svg10.dtd">
<svg version="1.0" xmlns="http://www.w3.org/2000/svg"
 width="32.000000pt" height="32.000000pt" viewBox="0 0 32.000000 32.000000"
 preserveAspectRatio="xMidYMid meet">

<g transform="translate(0.000000,32.000000) scale(0.100000,-0.100000)"
fill="#000000" stroke="none">
<path d="M12 163 l3 -118 44 0 c27 0 46 5 49 13 2 8 -7 12 -27 12 -29 0 -31 2
-31 39 0 32 4 40 20 43 27 4 27 22 0 26 -15 3 -20 11 -20 37 0 29 4 34 27 37
14 2 28 9 31 16 2 8 -11 12 -47 12 l-52 0 3 -117z"/>
</g>
</svg>
