<svg xmlns="http://www.w3.org/2000/svg" viewBox="0 0 256 256">
  <rect width="256" height="256" fill="#2C5F8D"/>
  <path d="M80 70 L80 186 L150 186 L150 160 L110 160 L110 140 L145 140 L145 116 L110 116 L110 94 L150 94 L150 70 Z" fill="#E8EDF2"/>
  <path d="M150 70 L150 186 L180 186 Q210 186 210 156 Q210 128 180 128 Q210 128 210 98 Q210 70 180 70 Z M180 94 Q185 94 185 98 Q185 104 180 104 L180 94 Z M180 152 Q185 152 185 156 Q185 162 180 162 L180 152 Z" fill="#8FA5B8"/>
  <rect x="145" y="70" width="35" height="116" fill="#5A7A99"/>
</svg>